{"title":"WWE Friday Night Smackdown - 17th Sept 2010 - Xvid--","uid":5836376,"size":782512128,"categoryP":"video","categoryS":"tv_shows","magnet":"?xt=urn:btih:d620ee3abb4ee1482597a07c45e0d0ac0b69f09b&amp;dn=WWE+Friday+Night+Smackdown+-+17th+Sept+2010+-+Xvid--&amp;tr=udp%3A%2F%2Ftracker.openbittorrent.com%3A80&amp;tr=udp%3A%2F%2Fopen.demonii.com%3A1337&amp;tr=udp%3A%2F%2Ftracker.coppersurfer.tk%3A6969&amp;tr=udp%3A%2F%2Fexodus.desync.com%3A6969","seeders":0,"leechers":0,"uploader":"Vamp111","files":1,"time":1284733542,"description":"\n[IMG]http://i1022.photobucket.com/albums/af345/bhoottt/WWEFridayNightSmackdown-17thSept2010-Xvid_20100917-17255140.jpg[/IMG]\n[IMG]http://i1022.photobucket.com/albums/af345/bhoottt/WWEFridayNightSmackdown-17thSept2010-Xvid_20100917-17243631.jpg[/IMG]\n[IMG]http://i1022.photobucket.com/albums/af345/bhoottt/WWEFridayNightSmackdown-17thSept2010-Xvid_20100917-17204404.jpg[/IMG]\n[IMG]http://i1022.photobucket.com/albums/af345/bhoottt/WWEFridayNightSmackdown-17thSept2010-Xvid_20100917-17263907.jpg[/IMG]\n[IMG]http://i1022.photobucket.com/albums/af345/bhoottt/WWEFridayNightSmackdown-17thSept2010-Xvid_20100917-17215582.jpg[/IMG]\n\nVideo\nID                               : 0\nFormat                           : MPEG-4 Visual\nFormat profile                   : Advanced Simple@L5\nFormat settings, BVOP            : Yes\nFormat settings, QPel            : No\nFormat settings, GMC             : No warppoints\nFormat settings, Matrix          : Default (H.263)\nCodec ID                         : XVID\nCodec ID/Hint                    : XviD\nDuration                         : 1h 22mn\nBit rate                         : 1 140 Kbps\nWidth                            : 624 pixels\nHeight                           : 352 pixels\nDisplay aspect ratio             : 16:9\nFrame rate                       : 25.000 fps\nResolution                       : 8 bits\nColorimetry                      : 4:2:0\nScan type                        : Progressive\nBits/(Pixel*Frame)               : 0.208\nStream size                      : 674 MiB (90%)\nWriting library                  : XviD 1.2.1 (UTC 2008-12-04)\n\nAudio\nID                               : 1\nFormat                           : MPEG Audio\nFormat version                   : Version 1\nFormat profile                   : Layer 3\nMode                             : Joint stereo\nFormat_Settings_ModeExtension    : MS Stereo\nCodec ID                         : 55\nCodec ID/Hint                    : MP3\nDuration                         : 1h 22mn\nBit rate mode                    : Variable\nBit rate                         : 109 Kbps\nNominal bit rate                 : 128 Kbps\nChannel(s)                       : 2 channels\nSampling rate                    : 48.0 KHz\nStream size                      : 64.6 MiB (9%)\nAlignment                        : Aligned on interleaves\nInterleave, duration             : 24 ms (0.60 video frame)\nInterleave, preload duration     : 498 ms\nWriting library                  : LAME3.90.\nEncoding settings                : -m j -V 4 -q 2 -lowpass 17.6 --abr 128","torrent":{"xt":"urn:btih:d620ee3abb4ee1482597a07c45e0d0ac0b69f09b","amp;dn":"WWE+Friday+Night+Smackdown+-+17th+Sept+2010+-+Xvid--","amp;tr":["udp%3A%2F%2Ftracker.openbittorrent.com%3A80","udp%3A%2F%2Fopen.demonii.com%3A1337","udp%3A%2F%2Ftracker.coppersurfer.tk%3A6969","udp%3A%2F%2Fexodus.desync.com%3A6969"],"infoHash":"d620ee3abb4ee1482597a07c45e0d0ac0b69f09b","infoHashBuffer":{"type":"Buffer","data":[214,32,238,58,187,78,225,72,37,151,160,124,69,224,208,172,11,105,240,155]},"announce":[],"urlList":[]}}